<svg id="Layer_1" data-name="Layer 1" xmlns="http://www.w3.org/2000/svg" viewBox="0 0 63.34 71.33"><defs><style>.cls-1{fill:none;stroke:#fff;stroke-miterlimit:10;stroke-width:4px;}</style></defs><path class="cls-1" d="M5.87,24.67H19a0,0,0,0,1,0,0v22a0,0,0,0,1,0,0H5.87A3.87,3.87,0,0,1,2,42.8V28.54A3.87,3.87,0,0,1,5.87,24.67Z"/><polygon class="cls-1" points="40 66.67 19 46.67 19 24.67 40 4.67 40 66.67"/><path class="cls-1" d="M72,31l.1.09A12.34,12.34,0,0,1,72,48.81h0" transform="translate(-25 -4.33)"/><path class="cls-1" d="M79.46,23.81l.18.17a22.28,22.28,0,0,1-.18,32h0" transform="translate(-25 -4.33)"/></svg>